# xmcd
# 
# Track frame offsets:
#     150
#     17846
#     31488
#     53016
#     73229
#     86377
#     98807
#     116306
#     129885
#     144236
#     156636
#     170572
# 
# Disc length: 2444
# 
# Revision: 0
# Processed by: cddbd v1.5.2PL0 Copyright (c) Steve Scherf et al.
# Submitted via: fre:ac v1.0.27
# 
DISCID=9a098a0c
DTITLE=Schpet in der Nacht - Herbstzeitlos
DYEAR=2011
DGENRE=Folk
TTITLE0=Let's start a band
TTITLE1=Dont think twice it's all right
TTITLE2=Dreams
TTITLE3=Hallelujah
TTITLE4=He was my brother
TTITLE5=This land is your land
TTITLE6=Closer to fine
TTITLE7=Gabrielas Song
TTITLE8=The Rose
TTITLE9=And when i die
TTITLE10=Mr. Man
TTITLE11=Road to Home
EXTD=
EXTT0=
EXTT1=
EXTT2=
EXTT3=
EXTT4=
EXTT5=
EXTT6=
EXTT7=
EXTT8=
EXTT9=
EXTT10=
EXTT11=
PLAYORDER=
